<?xml version="1.0" standalone="no"?>
<svg viewBox="0 0 200 200" xmlns="http://www.w3.org/2000/svg">
  <path fill="#EEEEEE" d="M32,-49.6C44.4,-48.2,59.4,-45.6,60.3,-37.1C61.1,-28.7,47.8,-14.3,44.2,-2.1C40.7,10.2,46.8,20.4,48.9,33.9C51,47.5,48.9,64.4,40.1,65.1C31.3,65.8,15.6,50.3,4.9,41.8C-5.8,33.3,-11.6,31.7,-21.8,31.8C-32.1,31.9,-46.9,33.7,-53.2,28.7C-59.5,23.7,-57.4,11.9,-50.5,4C-43.6,-3.9,-32,-7.8,-26,-13.5C-20.1,-19.2,-19.9,-26.7,-16.5,-33.2C-13.1,-39.8,-6.6,-45.5,1.6,-48.3C9.8,-51,19.6,-50.9,32,-49.6Z" transform="translate(100 100)" />
</svg>
